<svg xmlns="http://www.w3.org/2000/svg" style="isolation:isolate" viewBox="0 0 200 900"><circle cx="37.5" cy="53.5" r="22.5" fill="#EBEBEB" vector-effect="non-scaling-stroke"/><path fill="#EBEBEB" d="m78 158.7-14.3 3-14.2 3c-5.4 1.2-12-1.8-14.8-6.6l-7.2-12.6-7.3-12.6c-2.7-4.8-2-12 1.7-16.1l9.8-10.8 9.7-10.8a14.6 14.6 0 0 1 15.9-3.3l13.3 5.9 13.3 6c5 2.2 8.6 8.5 8 14l-1.5 14.4-1.6 14.5a14.7 14.7 0 0 1-10.8 12Zm165.7 18.8-15.5 7.9-15.5 7.8c-5.9 3-14.4 1.7-19-3l-12.4-12.3-12.3-12.4c-4.6-4.6-6-13.2-3-19l8-15.6 7.9-15.4c3-6 10.7-9.8 17.2-8.8l17.2 2.8 17.2 2.7c6.5 1 12.6 7.2 13.7 13.7l2.6 17.2 2.7 17.2c1 6.5-2.9 14.2-8.8 17.2ZM170.8 48l-6.4-2.1-6.4-2.1a6.8 6.8 0 0 1-4.4-6V24.1c0-2.5 2-5.2 4.4-6l6.5-2 6.4-2.2c2.4-.7 5.6.3 7 2.4l4 5.4 4 5.5c1.5 2 1.5 5.4 0 7.5l-4 5.4-4 5.5a6.8 6.8 0 0 1-7 2.3Zm-47.7 46.5-18-12.2-18-12.2c-4.6-3.1-4.2-7.6.7-10l19.6-9.5 19.6-9.5c5-2.4 8.7.1 8.3 5.6l-1.6 21.7-1.6 21.7c-.4 5.5-4.4 7.5-9 4.4Zm21.6 75.5L132 181l-13 11.1c-3.2 2.9-6.5 1.7-7.3-2.5l-3.2-16.7-3.2-16.7c-.9-4.2 1.8-6.5 5.9-5.1l16 5.6 16 5.5c4.1 1.4 4.8 4.9 1.5 7.7ZM51 241.8l-36.5 7-36.4 7c-9.3 1.8-14.3-4-11.2-12.9l12.2-35 12.2-35.2c3-8.9 10.5-10.3 16.7-3.2l24.3 28 24.3 28.2c6.2 7.1 3.7 14.3-5.6 16.1Z"/><circle cx="122.6" cy="127.9" r="7.6" fill="#EBEBEB" vector-effect="non-scaling-stroke"/><path fill="#ebebeb" d="M181 69c2.1 1.3 2.8 4 1.6 6.2L162 111a4.5 4.5 0 0 1-7.8-4.5l20.6-35.7c1.2-2.1 4-2.9 6.1-1.6ZM88.4 198.1a3 3 0 0 1-3.8 2.2l-27-7.3a3 3 0 0 1 1.6-6l27 7.4a3 3 0 0 1 2.2 3.7ZM156-3.3a8.6 8.6 0 0 0-10.6-6L69.3 11a8.6 8.6 0 0 0 4.5 16.6l76-20.4c4.7-1.2 7.4-6 6.2-10.6Z"/><path fill="#EBEBEB" d="M137.4 404.2a21.4 21.4 0 1 1-42.7 0 21.4 21.4 0 0 1 42.7 0Zm-59.8-100 13.5-2.8 13.6-2.9a14 14 0 0 1 14 6.3l6.9 12 6.9 12a14 14 0 0 1-1.7 15.2l-9.2 10.3-9.3 10.3a14 14 0 0 1-15 3.1l-12.7-5.6-12.6-5.6a14 14 0 0 1-7.7-13.4l1.5-13.7 1.5-13.8a14 14 0 0 1 10.3-11.4Zm-88.2 105.3 6 2 6.2 2c2.3.7 4.1 3.3 4.1 5.7V432c0 2.4-1.9 5-4.2 5.8l-6 2-6.2 1.9c-2.3.7-5.3-.3-6.7-2.2l-3.8-5.2-3.7-5.2a6.5 6.5 0 0 1 0-7.1l3.7-5.2 3.8-5.1c1.4-2 4.5-3 6.8-2.2Zm45.3-44.3 17.1 11.6L69 388.4c4.4 3 4 7.2-.7 9.5l-18.6 9-18.6 9c-4.7 2.3-8.2 0-7.8-5.3l1.5-20.6 1.4-20.6c.4-5.3 4.3-7.1 8.6-4.2Zm-20.5-71.6L26.4 283l12.2-10.5c3-2.7 6.2-1.6 7 2.4l3 15.8 3 15.9c.8 4-1.7 6.2-5.5 4.9l-15.3-5.3-15.2-5.3c-4-1.4-4.5-4.6-1.4-7.3Zm89-68.3 34.7-6.7 34.6-6.6c8.8-1.7 13.6 3.8 10.6 12.2l-11.5 33.4-11.6 33.3c-3 8.5-10 9.8-16 3l-23-26.6-23.1-26.7c-5.9-6.8-3.5-13.6 5.3-15.3ZM42.4 333.5a7.2 7.2 0 1 1-14.5 0 7.2 7.2 0 0 1 14.5 0Z"/><path fill="#ebebeb" d="M-20.3 389.4a4.3 4.3 0 0 1-1.5-5.9l19.6-33.8c1.1-2 3.7-2.8 5.8-1.6 2 1.2 2.7 3.8 1.6 5.8l-19.6 34a4.3 4.3 0 0 1-5.9 1.5Zm91.6-129.9 3.4-2a10 10 0 0 1 13.7 3.6l2 3.5a10 10 0 0 1-3.7 13.7l-3.4 2a10 10 0 0 1-13.7-3.7l-2-3.5a10 10 0 0 1 3.7-13.6Zm-6.1 167 9 2.4A23.5 23.5 0 0 1 91 457.8l-2.4 9a23.5 23.5 0 0 1-28.8 16.7l-9.1-2.4A23.5 23.5 0 0 1 34 452.2l2.5-9a23.5 23.5 0 0 1 28.8-16.7Zm94.1-101.2 6.4-11.2a32.2 32.2 0 0 1 44-11.8l11.2 6.4a32.2 32.2 0 0 1 11.8 44l-6.5 11.2a32.2 32.2 0 0 1-44 11.8l-11.1-6.5a32.2 32.2 0 0 1-11.8-44Z"/><path fill="#EBEBEB" d="M89.5 543a29 29 0 1 1 29-50.4 29 29 0 0 1-29 50.3Zm128.5-3-4.5 13.9-4.5 13.8a14.7 14.7 0 0 1-13.1 9.5h-29.2c-5.5 0-11.3-4.3-13-9.6l-4.5-13.8-4.5-13.9c-1.7-5.2.6-12.1 5-15.4l11.8-8.5 11.8-8.5a14.7 14.7 0 0 1 16.2 0l11.8 8.6 11.7 8.5a14.7 14.7 0 0 1 5 15.4Zm-33-71.2-19.6 9.5-19.6 9.5c-5 2.4-8.7 0-8.3-5.6l1.6-21.7 1.6-21.7c.3-5.5 4.4-7.5 9-4.4l18 12.3 18 12.2c4.5 3 4.2 7.5-.7 10Zm76 19 3.3 16.7 3.2 16.7c.8 4.2-1.9 6.5-6 5.1l-16-5.6-16-5.5c-4.1-1.5-4.8-4.9-1.5-7.7l12.8-11.1 12.9-11.1c3.2-2.9 6.5-1.7 7.4 2.5ZM276.5 605l-12.2 35-12.2 35.1c-3 9-10.6 10.4-16.7 3.2l-24.3-28-24.4-28.2c-6.1-7-3.6-14.3 5.6-16l36.5-7 36.5-7c9.3-1.9 14.3 4 11.2 12.8Zm-66.7-112.4a7.6 7.6 0 1 1 7.6-13.2 7.6 7.6 0 0 1-7.6 13.2Z"/><path fill="#ebebeb" d="M191.8 406a4.5 4.5 0 0 1 6.2 1.7l20.6 35.7c1.2 2.1.5 4.9-1.7 6.1a4.5 4.5 0 0 1-6.1-1.6l-20.6-35.7a4.5 4.5 0 0 1 1.7-6.2Zm65.5 144.7a3 3 0 0 1 0 4.4l-19.8 19.8a3 3 0 1 1-4.3-4.3l19.8-19.9a3 3 0 0 1 4.3 0Z"/><path fill="#EBEBEB" d="M147.3 595.4a21.4 21.4 0 1 1-21.4 37 21.4 21.4 0 0 1 21.4-37Zm-116.5 1.9 4.3-13.2 4.3-13.1c1.6-5 7.2-9 12.4-9h27.7a14 14 0 0 1 12.4 9l4.3 13.2 4.2 13.2a14 14 0 0 1-4.7 14.6l-11.2 8.1-11.2 8.1a14 14 0 0 1-15.4 0l-11.2-8.1-11.2-8.2a14 14 0 0 1-4.7-14.6ZM-70.8 719.8l5.8-17.6 5.7-17.6a18.7 18.7 0 0 1 16.7-12h37.1c7 0 14.5 5.4 16.7 12.1l5.7 17.6 5.7 17.7a19 19 0 0 1-6.4 19.6l-15 10.8-15 11c-5.8 4-15 4-20.7-.1l-15-11-15-10.9a19 19 0 0 1-6.3-19.6Zm148.6 6.5 4.8-4.3 4.8-4.3c1.8-1.6 5-2 7-.7l5.6 3.2 5.5 3.2a6.4 6.4 0 0 1 3 6.5l-1.4 6.3-1.4 6.2a6.5 6.5 0 0 1-5.3 4.8l-6.3.7-6.4.6a6.5 6.5 0 0 1-6.2-3.6l-2.5-5.8-2.6-5.9c-1-2.2-.4-5.3 1.4-7Zm55.2-47.2 9.6-14.8 9.7-14.8a17.8 17.8 0 0 1 18.3-7l17.1 4.5 17.1 4.7c6.5 1.7 12 8.6 12.4 15.3l.9 17.7.9 17.6a18 18 0 0 1-10.8 16.5l-16.5 6.3-16.5 6.4c-6.3 2.4-14.8 0-19-5.2L145 712.6l-11-13.8c-4.3-5.2-4.7-14-1-19.7ZM62.2 665l18.6-9 18.6-9.1c4.7-2.3 8.3 0 7.9 5.3l-1.5 20.6-1.5 20.7c-.4 5.2-4.2 7-8.6 4.1l-17-11.6-17.2-11.6c-4.3-3-4-7.2.7-9.5Zm-72.3-18.1-3-15.9-3.1-15.8c-.8-4 1.7-6.2 5.6-4.9l15.3 5.3 15.2 5.3c3.9 1.4 4.5 4.6 1.4 7.3L9.1 638.8l-12.2 10.5c-3.1 2.7-6.3 1.6-7-2.4ZM-36.6 535l11.6-33.3 11.6-33.3c3-8.5 10-9.9 16-3.1l23 26.7 23 26.7c6 6.8 3.6 13.6-5.2 15.3l-34.7 6.7-34.6 6.6c-8.8 1.7-13.6-3.8-10.7-12.2Zm75.2 107.4a7.2 7.2 0 1 1-7.3 12.5 7.2 7.2 0 0 1 7.3-12.5Z"/><path fill="#ebebeb" d="M55.6 724.6c-2 1.2-4.6.5-5.8-1.6l-19.6-33.9c-1.1-2-.4-4.6 1.6-5.8 2-1.2 4.7-.5 5.8 1.6l19.6 33.9c1.2 2 .5 4.6-1.6 5.8Zm-66.7-144.2v-4a10 10 0 0 1 10-10h4a10 10 0 0 1 10 10v4a10 10 0 0 1-10 10h-4a10 10 0 0 1-10-10Z"/><path fill="#EBEBEB" d="M131.9 736.4a18 18 0 1 1 18 31.2 18 18 0 0 1-18-31.2ZM84.2 822l-7.7-8.7-7.8-8.6c-3-3.3-3.5-9-1.3-12.9l5.8-10 5.8-10c2.2-3.9 7.5-6.2 11.8-5.3l11.4 2.4 11.4 2.4c4.3 1 8.2 5.3 8.6 9.7l1.2 11.5 1.2 11.6c.5 4.4-2.4 9.4-6.5 11.2l-10.6 4.7-10.6 4.7c-4 1.8-9.7.6-12.7-2.7Zm57.5 110-11-3.7-11-3.6c-4.3-1.4-7.7-6-7.7-10.5V891a12 12 0 0 1 7.7-10.5l11-3.5 11.1-3.6c4.2-1.4 9.7.4 12.3 4l6.8 9.4 6.8 9.4c2.6 3.6 2.6 9.4 0 13l-6.9 9.4-6.8 9.3a11.7 11.7 0 0 1-12.3 4Zm5-104.4 1.2-17.4 1.3-17.3c.3-4.4 3.5-6 7.2-3.5l14.3 9.8 14.4 9.7c3.7 2.5 3.4 6-.5 8l-15.7 7.6-15.6 7.5c-4 2-7 0-6.6-4.4Zm-43.5 45-12.9-4.4-12.8-4.5c-3.2-1.1-3.8-3.9-1.2-6.1l10.3-8.9 10.3-8.9c2.6-2.2 5.2-1.3 5.9 2l2.5 13.4 2.6 13.3c.6 3.4-1.5 5.2-4.7 4.1ZM16 836.5l-19.4-22.4-19.4-22.5c-5-5.6-3-11.4 4.5-12.8l29.1-5.6 29.1-5.6c7.4-1.4 11.4 3.2 9 10.3l-9.8 28-9.7 28c-2.5 7.1-8.5 8.3-13.4 2.6Zm104.3-1.2a6 6 0 1 1 6.1 10.5 6 6 0 0 1-6-10.5Z"/><path fill="#ebebeb" d="M187.3 857.4c0 2-1.6 3.6-3.6 3.6H151a3.6 3.6 0 1 1 0-7.2h32.8c2 0 3.6 1.6 3.6 3.6ZM61.1 844.9c-1.3.3-2.6-.4-3-1.7l-5.7-21.7c-.4-1.3.4-2.6 1.7-3 1.3-.3 2.6.5 3 1.8l5.8 21.6c.3 1.3-.5 2.6-1.8 3Z"/><path fill="#EBEBEB" d="M-61.8 961.1a17 17 0 1 1-17-29.6 17 17 0 0 1 17 29.6Zm45.3-81.3 7.3 8.2 7.4 8.2c2.8 3.2 3.4 8.6 1.3 12.2l-5.6 9.6-5.5 9.6a11.1 11.1 0 0 1-11.2 5l-10.8-2.4-10.8-2.3c-4.1-.9-7.8-5-8.2-9.1l-1.2-11-1.1-11a11 11 0 0 1 6.2-10.6l10-4.5 10.1-4.5a11 11 0 0 1 12 2.6Zm-108.1-19 1.1 5 1 5a5 5 0 0 1-2.3 5.2l-4.4 2.6-4.4 2.5c-1.7 1-4.2.7-5.7-.6l-3.8-3.4-3.8-3.4a5.1 5.1 0 0 1-1.1-5.6l2-4.7 2.1-4.6c.8-1.8 3-3 5-2.9l5 .6 5.1.5c2 .2 3.8 2 4.2 3.8Zm48.7 13.7L-77 891l-1.1 16.4c-.3 4.2-3.4 5.7-6.9 3.4l-13.6-9.3-13.7-9.3c-3.5-2.3-3.2-5.7.5-7.5l14.9-7.3 14.9-7.2c3.7-1.8 6.5.1 6.2 4.3Zm41.4-42.8 12.2 4.2 12.1 4.2c3.1 1.1 3.6 3.7 1.2 5.9l-9.8 8.4-9.7 8.4c-2.5 2.2-5 1.3-5.6-2l-2.5-12.6-2.4-12.6c-.6-3.3 1.4-5 4.5-4ZM48.3 866l18.4 21.3 18.5 21.3c4.6 5.4 2.7 11-4.3 12.3l-27.7 5.3-27.6 5.3c-7 1.3-10.9-3-8.5-9.8l9.2-26.6 9.3-26.7c2.3-6.7 8-7.8 12.7-2.4Zm-99.1 1.2a5.8 5.8 0 1 1-5.8-10 5.8 5.8 0 0 1 5.8 10Z"/><path fill="#ebebeb" d="M-114.5 846.1c0-1.8 1.5-3.4 3.4-3.4h31.3c1.8 0 3.4 1.6 3.4 3.4 0 2-1.6 3.5-3.4 3.5h-31.3a3.4 3.4 0 0 1-3.4-3.5Zm126.4 11.5 2.7 1.6a8 8 0 0 1 3 10.9l-1.6 2.7a8 8 0 0 1-11 3l-2.7-1.6a8 8 0 0 1-3-11l1.7-2.7a8 8 0 0 1 10.9-3Z"/></svg>